<svg xmlns="http://www.w3.org/2000/svg" viewBox="0 0 32 32">
  <title>mycrypto_</title>
  <path d="M16,0A16,16,0,1,0,32,16,16,16,0,0,0,16,0Zm5.53,21-4.12,4.17a2,2,0,0,1-1.4.59h0a2,2,0,0,1-1.4-.59L10.51,21a2,2,0,0,1,0-2.85,1.09,1.09,0,0,1,.78-.33h0a1.09,1.09,0,0,1,.78.33l2.08,2.11a2.62,2.62,0,0,0,3.74,0L20,18.15a1.09,1.09,0,0,1,.78-.33h0a1.09,1.09,0,0,1,.78.33A2,2,0,0,1,21.55,21Zm4.33-6.67a1.07,1.07,0,0,1-.76.32h0a1,1,0,0,1-.73-.3l-2-2a2.49,2.49,0,0,0-1.78-.74,2.57,2.57,0,0,0-1.84.77l-2,2.05a1.07,1.07,0,0,1-1,.3,1,1,0,0,1-.56-.29l-2-2a2.49,2.49,0,0,0-1.78-.74h0a2.57,2.57,0,0,0-1.84.77l-2,2.05a1.07,1.07,0,0,1-1.49,0,2,2,0,0,1,0-2.73l4-4.06a1.91,1.91,0,0,1,1.37-.58,1.83,1.83,0,0,1,1.31.55L16,11,19.3,7.66a1.92,1.92,0,0,1,1.37-.58A1.83,1.83,0,0,1,22,7.63l3.93,4A2,2,0,0,1,25.88,14.34Z" style="fill: #007896"/>
</svg>
