<svg xmlns="http://www.w3.org/2000/svg" viewBox="0 0 128 128">
  <title>mycrypto_</title>
  <g>
    <circle cx="64" cy="64" r="64" style="fill: #4EB6F5"/>
    <path d="M83.06,71.3h0a4.37,4.37,0,0,0-3.13,1.32L71.59,81a10.49,10.49,0,0,1-15,0L48.3,72.6a4.38,4.38,0,0,0-3.13-1.32h0A4.37,4.37,0,0,0,42,72.6,8.14,8.14,0,0,0,42,84L58.5,100.68A7.83,7.83,0,0,0,64.1,103h0a7.83,7.83,0,0,0,5.61-2.35L86.19,84a8.14,8.14,0,0,0,0-11.4A4.38,4.38,0,0,0,83.06,71.3Z" style="fill: #fff"/>
    <path d="M103.66,46.43,87.94,30.52a7.34,7.34,0,0,0-5.26-2.19,7.66,7.66,0,0,0-5.48,2.31L64.12,43.86l-12.85-13A7.33,7.33,0,0,0,46,28.65,7.66,7.66,0,0,0,40.53,31l-16,16.22a7.79,7.79,0,0,0-.13,10.92,4.29,4.29,0,0,0,6-.07l8.11-8.21a10.29,10.29,0,0,1,7.36-3.09h0a10,10,0,0,1,7.13,3l8,8.05a4,4,0,0,0,2.24,1.15A4.3,4.3,0,0,0,67,57.7l8.11-8.21a10.28,10.28,0,0,1,7.36-3.09,10,10,0,0,1,7.13,3l8,8.05a4.07,4.07,0,0,0,2.92,1.22h0a4.28,4.28,0,0,0,3.06-1.29A7.8,7.8,0,0,0,103.66,46.43Z" style="fill: #fff"/>
  </g>
</svg>
